<svg id="filled_outline" height="512" viewBox="0 0 512 512" width="512" xmlns="http://www.w3.org/2000/svg" data-name="filled outline"><path d="m424 144v-64h-368a32 32 0 0 0 -32 32v280.04a39.96 39.96 0 0 0 39.959 39.96h359.385a32.656 32.656 0 0 0 32.656-32.656v-255.344z" fill="#f96f3c"/><path d="m424 144c0 132.548-107.452 240-240 240h-152.041a40.143 40.143 0 0 1 -7.959-.8v8.835a39.96 39.96 0 0 0 39.96 39.965h359.384a32.655 32.655 0 0 0 32.656-32.656v-255.344z" fill="#df2f19"/><path d="m56 80h368a0 0 0 0 1 0 0v64a0 0 0 0 1 0 0h-368a32 32 0 0 1 -32-32 32 32 0 0 1 32-32z" fill="#df2f19"/><path d="m464 192h-8v48h-88a48 48 0 0 0 -48 48 48 48 0 0 0 48 48h96.038a23.962 23.962 0 0 0 23.962-23.962v-96.038a24 24 0 0 0 -24-24z" fill="#fab645"/><path d="m464.038 304h-96.038a48.012 48.012 0 0 1 -45.258-32 48.008 48.008 0 0 0 45.258 64h96.038a23.962 23.962 0 0 0 23.962-23.962v-32a23.962 23.962 0 0 1 -23.962 23.962z" fill="#fc8c25"/><path d="m456 192h8a24 24 0 0 1 24 24 24 24 0 0 1 -24 24h-8a0 0 0 0 1 0 0v-48a0 0 0 0 1 0 0z" fill="#fc8c25"/><circle cx="376" cy="288" fill="#7167f6" r="24"/><path d="m376 296a24.006 24.006 0 0 1 -22.629-16 24 24 0 1 0 45.258 0 24.006 24.006 0 0 1 -22.629 16z" fill="#3735c7"/><path d="m232 320v52.506a142.169 142.169 0 0 1 -112 0v-52.506z" fill="#e9f6fc"/><path d="m216 320v36.506a142.159 142.159 0 0 1 -96 5.741v10.259a142.16 142.16 0 0 0 112 0v-52.506z" fill="#a9edff"/><path d="m56 104h368v16h-368z" fill="#d71441"/><g fill="#fdb3bb"><path d="m408 168h16v16h-16z"/><path d="m408 200h16v16h-16z"/><path d="m408 360h16v16h-16z"/><path d="m408 392h16v16h-16z"/></g><path d="m288 240a112 112 0 0 1 -224 0z" fill="#e9f6fc"/><path d="m251.353 240a112.028 112.028 0 0 1 -168.919 61.566 112 112 0 0 0 205.566-61.566z" fill="#a9edff"/><path d="m119.58 224h152.84v16h-152.84z" fill="#fb3260" transform="matrix(.68 -.733 .733 .68 -107.377 217.769)"/><path d="m163.58 228h152.84v16h-152.84z" fill="#fb3260" transform="matrix(.733 -.68 .68 .733 -96.457 226.363)"/><path d="m376 264a24 24 0 1 0 24 24 24.027 24.027 0 0 0 -24-24zm0 32a8 8 0 1 1 8-8 8.009 8.009 0 0 1 -8 8z"/><path d="m464 184v-40a8 8 0 0 0 -8-8h-24v-56a8 8 0 0 0 -8-8h-368a40.045 40.045 0 0 0 -40 40v280.041a48.014 48.014 0 0 0 47.96 47.959h359.385a40.7 40.7 0 0 0 40.655-40.656v-55.344h.038a32 32 0 0 0 31.962-31.962v-96.038a32.036 32.036 0 0 0 -32-32zm-408-96h360v16h-360v16h360v16h-360a24 24 0 0 1 0-48zm392 311.344a24.684 24.684 0 0 1 -24.655 24.656h-359.385a32 32 0 0 1 -31.96-31.959v-248.063a39.788 39.788 0 0 0 24 8.022h392v80h-80a56 56 0 0 0 0 112h80zm16.038-71.344h-96.038a40 40 0 0 1 0-80h96a31.8 31.8 0 0 0 16-4.305v68.343a15.98 15.98 0 0 1 -15.962 15.962zm-.038-96v-32a16 16 0 0 1 0 32z"/><path d="m290.557 178.138-58.006 53.862h-25.634l46.945-50.557-11.724-10.886-57.055 61.443h-121.083a8 8 0 0 0 -8 8 120.015 120.015 0 0 0 56 101.463v31.042a8 8 0 0 0 4.849 7.353 150.825 150.825 0 0 0 118.3 0 8 8 0 0 0 4.851-7.353v-31.042a120.015 120.015 0 0 0 56-101.463 8 8 0 0 0 -8-8h-31.936l45.379-42.138zm-66.557 188.98a134.883 134.883 0 0 1 -96 0v-17.148a119.87 119.87 0 0 0 96 0zm55.7-119.118a104 104 0 0 1 -207.39 0h97.921l-32.088 34.557 11.724 10.886 42.193-45.443h23.26l-36.763 34.138 10.886 11.724 49.39-45.862z"/><path d="m408 168h16v16h-16z"/><path d="m408 200h16v16h-16z"/><path d="m408 360h16v16h-16z"/><path d="m408 392h16v16h-16z"/></svg>